<svg width="448" height="512" xmlns="http://www.w3.org/2000/svg" class="svg-inline--fa fa-dna fa-w-14">

 <g>
  <title>background</title>
  <rect fill="none" id="canvas_background" height="602" width="802" y="-1" x="-1"/>
 </g>
 <g>
  <title>Layer 1</title>
  <path id="svg_1" d="m0.1,494.1c-1.1,9.5 6.3,17.8 15.9,17.8l32.3,0.1c8.1,0 14.9,-5.9 16,-13.9c0.7,-4.9 1.8,-11.1 3.4,-18.1l312.3,0c1.6,6.9 2.9,13.2 3.5,18.1c1.1,8 7.9,14 16,13.9l32.3,-0.1c9.6,0 17.1,-8.3 15.9,-17.8c-4.6,-37.9 -25.6,-129 -118.9,-207.7c-17.6,12.4 -37.1,24.2 -58.5,35.4c6.2,4.6 11.4,9.4 17,14.2l-127.6,0c21.3,-18.1 47,-35.6 78.7,-51.4c172.1,-85.5 203.7,-218.8 209.5,-266.7c1.1,-9.5 -6.3,-17.8 -15.9,-17.8l-32.4,-0.1c-8.1,0 -14.9,5.9 -16,13.9c-0.7,4.9 -1.8,11.1 -3.4,18.1l-312.4,0c-1.6,-7 -2.7,-13.1 -3.4,-18.1c-1.1,-8 -7.9,-14 -16,-13.9l-32.3,0.1c-9.6,0 -17.1,8.3 -16,17.8c5.2,42.9 31.3,153.9 159.9,238.1c-128.5,84.2 -154.7,195.2 -159.9,238.1zm223.9,-274.5c-25.1,-13.7 -46.4,-28.4 -64.3,-43.6l128.5,0c-17.8,15.2 -39.1,30 -64.2,43.6zm131.1,-123.6c-5.8,10.4 -12.8,21.1 -21,32l-220.1,0c-8.3,-10.9 -15.3,-21.6 -21,-32l262.1,0zm-262.2,320c5.8,-10.4 12.8,-21.1 21,-32l219.4,0c8.3,10.9 15.4,21.6 21.2,32l-261.6,0z" fill="#ffffff"/>
 </g>
</svg>